<svg width="22" height="22" fill="none" xmlns="http://www.w3.org/2000/svg"><path d="M10.687.333c-2.896 0-3.26.012-4.398.064C5.154.45 4.38.63 3.701.893a5.223 5.223 0 00-1.89 1.23 5.236 5.236 0 00-1.23 1.889C.315 4.69.135 5.465.084 6.6.035 7.738.021 8.102.021 10.998c0 2.897.013 3.26.064 4.397.052 1.135.232 1.91.496 2.588a5.226 5.226 0 001.23 1.89 5.223 5.223 0 001.888 1.23c.68.264 1.454.444 2.59.496 1.137.052 1.5.065 4.397.065 2.897 0 3.259-.013 4.397-.065 1.135-.052 1.911-.232 2.59-.495a5.22 5.22 0 001.888-1.231 5.238 5.238 0 001.23-1.89c.263-.678.443-1.453.496-2.588.051-1.138.065-1.5.065-4.397 0-2.896-.014-3.26-.065-4.397-.053-1.136-.233-1.91-.495-2.59a5.237 5.237 0 00-1.231-1.888 5.213 5.213 0 00-1.89-1.23c-.679-.264-1.454-.444-2.59-.496-1.138-.052-1.5-.064-4.397-.064h.003zM9.73 2.255h.957c2.848 0 3.185.01 4.31.061 1.04.048 1.604.221 1.98.367a3.31 3.31 0 011.226.798c.373.373.604.729.798 1.227.146.375.32.94.367 1.98.051 1.124.062 1.461.062 4.308 0 2.846-.01 3.184-.062 4.308-.047 1.04-.221 1.604-.367 1.98a3.298 3.298 0 01-.798 1.225 3.298 3.298 0 01-1.226.798c-.375.146-.94.32-1.98.367-1.124.052-1.462.063-4.31.063s-3.185-.011-4.31-.063c-1.04-.048-1.604-.221-1.98-.367a3.303 3.303 0 01-1.227-.798 3.306 3.306 0 01-.798-1.226c-.146-.375-.32-.94-.367-1.98-.051-1.124-.061-1.462-.061-4.31s.01-3.184.061-4.308c.048-1.04.221-1.605.367-1.98.194-.498.425-.854.798-1.227a3.31 3.31 0 011.227-.798c.376-.147.94-.32 1.98-.368.984-.044 1.366-.058 3.353-.06v.003zm6.65 1.77a1.28 1.28 0 100 2.56 1.28 1.28 0 000-2.56zm-5.693 1.496a5.477 5.477 0 10.001 10.955 5.477 5.477 0 00-.001-10.955zm0 1.922a3.555 3.555 0 110 7.11 3.555 3.555 0 010-7.11z" fill="#fff"/></svg>