<svg width="23" height="20" fill="none" xmlns="http://www.w3.org/2000/svg"><path d="M.282 16.884c2.382.134 4.464-.422 6.495-1.897-2.051-.35-3.474-1.288-4.247-3.226.598-.083 1.123.072 1.742-.176C2.252 10.7.942 9.37.89 7.07c.64.051 1.124.474 1.887.412C.921 5.668.354 3.688 1.52 1.286 3.457 3.513 5.726 5.028 8.5 5.74c.154.041.299.082.453.113.712.165 1.557.516 1.99.464.742-.093 0-.948.186-2.062.587-3.464 4.402-5.041 7.227-3.01.824.598 1.474.588 2.288.227.423-.186.856-.371 1.361-.588-.113.99-.876 1.536-1.485 2.268.691.155 1.248-.041 1.887-.247-.216.711-.752 1.113-1.237 1.505-.505.402-.701.825-.722 1.484-.309 9.99-11.66 17.712-19.423 11.568-.752-.598-.02 0-.742-.578z" fill="#fff"/></svg>