<svg width="113" height="102" fill="none" xmlns="http://www.w3.org/2000/svg"><path d="M56.847 33.286v-.31l-.22-.22L40.202 16.33a.24.24 0 01-.042-.054.146.146 0 01.038-.036.123.123 0 01.069-.019h33.297a.123.123 0 01.09.036.343.343 0 010 .098l-16.4 16.401-.22.22v15.31l.535.16 7.642 2.282.017.005.016.004a.19.19 0 01.102.063c.022.026.025.046.025.053 0 0 0 0 0 0l-.001.004a.065.065 0 01-.004.013.14.14 0 01-.03.042.144.144 0 01-.042.03.075.075 0 01-.013.004H48.604c-.055 0-.082-.017-.09-.024-.007-.005-.009-.008-.01-.01a.183.183 0 01.02-.112.046.046 0 01.011-.013h.002l.018-.005.017-.005 7.741-2.332.534-.161V33.287zM73.65 16.37v-.001.001zM56.41 32.328l.528.528.53-.526 6.452-6.402 1.583-1.57-2.21.294c-.745.1-1.495.192-2.284.192-1.442 0-3.02-.279-4.55-.973-3.001-1.393-5.885-.962-7.433-.482l-1.186.369.878.878 7.692 7.692zM54.044 49.29l.217 1.468h5.26l.216-1.468-2.63-.794-.216-.065-.217.065-2.63.794zm11.893-25.575l.152-.057.115-.115 5.906-5.905 1.28-1.28h-32.9l1.28 1.28 5.607 5.608.336.335.447-.16c1.336-.477 4.717-1.485 8.362.222l.004.002c2.05.944 4.208 1.028 5.923.852 1.719-.176 3.049-.617 3.487-.782z" fill="#fff" stroke="#fff" stroke-width="1.5"/><path fill-rule="evenodd" clip-rule="evenodd" d="M61.837 18.604c.915-.328 1.823-.389 2.534-.221l-1.43-16.195a.718.718 0 01.661-.768.718.718 0 01.768.661l.143 1.888c3.697 5.45 10.899 2.6 6.32 10.435.825-7.406-4.1-6.038-5.99-6.075l.985 10.307c.128 1.742-.891 3.155-2.623 3.777-1.743.625-3.462.28-3.84-.772-.378-1.051.73-2.41 2.472-3.037z" fill="#fff"/><path d="M20.345 76.933v-.2h.62c.253 0 .473-.04.66-.12a.81.81 0 00.44-.4c.106-.2.16-.48.16-.84v-11.2c0-.36-.054-.633-.16-.82a.814.814 0 00-.44-.38 1.667 1.667 0 00-.66-.12h-.62v-.2h6.48v.2h-.62c-.24 0-.46.04-.66.12a.814.814 0 00-.44.38c-.094.187-.14.454-.14.8v12.58h3.22c.773 0 1.393-.106 1.86-.32.48-.213.84-.56 1.08-1.04.24-.48.386-1.126.44-1.94l.06-.9h.2l-.16 4.4h-11.32zm12.832 0v-.2h.62c.253 0 .473-.04.66-.12a.81.81 0 00.44-.4c.106-.2.16-.48.16-.84v-11.2c0-.36-.054-.633-.16-.82a.814.814 0 00-.44-.38 1.666 1.666 0 00-.66-.12h-.62v-.2h6.48v.2h-.62c-.254 0-.48.04-.68.12a.808.808 0 00-.42.42c-.094.187-.14.46-.14.82v11.16c0 .36.046.64.14.84.093.187.233.32.42.4.2.08.426.12.68.12h.62v.2h-6.48zm18.514 4.72a6.16 6.16 0 01-1.7-.24 4.392 4.392 0 01-1.52-.8 4.24 4.24 0 01-1.16-1.42c-.294-.573-.474-1.286-.54-2.14-1.2-.173-2.2-.58-3-1.22-.787-.653-1.38-1.493-1.78-2.52-.4-1.04-.6-2.226-.6-3.56 0-1.48.24-2.766.72-3.86.493-1.093 1.226-1.94 2.2-2.54.986-.613 2.22-.92 3.7-.92 1.413 0 2.606.307 3.58.92.973.6 1.713 1.454 2.22 2.56.506 1.094.76 2.38.76 3.86 0 1.267-.187 2.4-.56 3.4-.374.987-.927 1.807-1.66 2.46-.72.64-1.607 1.08-2.66 1.32.013.827.086 1.527.22 2.1.133.587.32 1.054.56 1.4.24.347.533.6.88.76.36.16.773.24 1.24.24h.32v.2h-1.22zm-3.7-4.72c.64 0 1.186-.133 1.64-.4.466-.28.846-.706 1.14-1.28.293-.586.513-1.333.66-2.24.146-.906.22-1.986.22-3.24 0-1.253-.074-2.326-.22-3.22-.147-.906-.367-1.646-.66-2.22-.294-.586-.667-1.013-1.12-1.28-.454-.28-1-.42-1.64-.42-.64 0-1.194.14-1.66.42-.467.267-.854.694-1.16 1.28-.294.574-.514 1.314-.66 2.22-.134.894-.2 1.967-.2 3.22 0 1.254.066 2.334.2 3.24.146.907.366 1.654.66 2.24.293.574.673 1 1.14 1.28.466.267 1.02.4 1.66.4zm15.25.2c-1.12 0-2.08-.153-2.88-.46-.8-.306-1.413-.793-1.84-1.46-.427-.666-.64-1.54-.64-2.62v-8.46c0-.346-.053-.606-.16-.78a.814.814 0 00-.44-.38 1.667 1.667 0 00-.66-.12h-.62v-.2h6.48v.2h-.62c-.253 0-.473.04-.66.12a.913.913 0 00-.44.4c-.107.187-.16.46-.16.82v9.24c0 .867.133 1.547.4 2.04.267.494.634.847 1.1 1.06.467.2 1.007.3 1.62.3.88 0 1.627-.16 2.24-.48a3.25 3.25 0 001.4-1.38c.334-.613.5-1.333.5-2.16v-8.68c0-.346-.053-.606-.16-.78a.732.732 0 00-.44-.38 1.61 1.61 0 00-.64-.12h-.88v-.2h4.34v.2h-.76c-.253 0-.473.04-.66.12a.894.894 0 00-.44.42c-.106.187-.16.46-.16.82v8.62c0 .92-.187 1.7-.56 2.34-.36.64-.9 1.127-1.62 1.46-.72.334-1.6.5-2.64.5zm7.807-.2v-.2h.62c.253 0 .473-.04.66-.12a.81.81 0 00.44-.4c.106-.2.16-.48.16-.84v-11.2c0-.36-.054-.633-.16-.82a.814.814 0 00-.44-.38 1.667 1.667 0 00-.66-.12h-.62v-.2h6.48v.2h-.62c-.254 0-.48.04-.68.12a.807.807 0 00-.42.42c-.094.187-.14.46-.14.82v11.16c0 .36.046.64.14.84.093.187.233.32.42.4.2.08.426.12.68.12h.62v.2h-6.48zm7.754 0v-.2h.62c.253 0 .473-.04.66-.12a.81.81 0 00.44-.4c.106-.2.16-.48.16-.84v-11.24c0-.346-.054-.606-.16-.78a.814.814 0 00-.44-.38 1.666 1.666 0 00-.66-.12h-.62v-.2h6.42c1.44 0 2.666.267 3.68.8a5.338 5.338 0 012.36 2.34c.546 1.04.82 2.32.82 3.84 0 1.454-.26 2.727-.78 3.82a5.745 5.745 0 01-2.28 2.56c-1.014.614-2.287.92-3.82.92h-6.4zm5.96-.2c1.04 0 1.88-.24 2.52-.72.653-.48 1.126-1.24 1.42-2.28.293-1.053.44-2.426.44-4.12 0-1.6-.147-2.893-.44-3.88-.294-1-.76-1.726-1.4-2.18-.64-.466-1.48-.7-2.52-.7h-1.38v13.88h1.36zM7.58 98.933v-.2h1.2c.253 0 .473-.033.66-.1a.913.913 0 00.44-.4c.107-.186.16-.453.16-.8v-11.3c0-.346-.053-.606-.16-.78a.814.814 0 00-.44-.38 1.667 1.667 0 00-.66-.12h-1.2v-.2h4.92l4.5 11.34 3.8-11.34h4.44v.2h-.62c-.253 0-.48.04-.68.12a.895.895 0 00-.44.42c-.093.187-.14.46-.14.82v11.16c0 .36.047.64.14.84.107.187.253.32.44.4.2.08.427.12.68.12h.62v.2h-6v-.2h.16c.28 0 .52-.033.72-.1.2-.08.347-.206.44-.38.107-.186.16-.44.16-.76v-11.98l-4.48 13.42h-.78l-5.22-13.26v11.7c0 .36.053.64.16.84.12.187.293.32.52.4.24.08.527.12.86.12h.62v.2H7.58zm18.345 0v-.2h.74c.267 0 .494-.046.68-.14.187-.093.347-.246.48-.46.147-.226.287-.526.42-.9l4.52-12.58h1.6l4.68 12.78c.134.334.26.594.38.78.134.187.28.32.44.4.16.08.354.12.58.12h.14v.2h-6.18v-.2h.84c.387 0 .667-.053.84-.16.187-.106.28-.286.28-.54a.95.95 0 00-.04-.26 3.654 3.654 0 00-.06-.34 1.459 1.459 0 00-.1-.38l-1.18-3.32h-5.26l-1.12 3.12a7.791 7.791 0 00-.24.78c-.026.107-.04.207-.04.3 0 .294.114.5.34.62.227.12.574.18 1.04.18h1.06v.2h-4.84zm3.88-5.4h5.12l-1.34-3.8a63.09 63.09 0 00-.4-1.2 73.43 73.43 0 01-.42-1.3c-.12-.44-.226-.826-.32-1.16a30.938 30.938 0 01-.56 1.68 58.875 58.875 0 01-.64 1.76l-1.44 4.02zm11.427 5.4v-.2h.62c.254 0 .474-.033.66-.1a.913.913 0 00.44-.4c.107-.186.16-.453.16-.8v-11.26c0-.36-.053-.633-.16-.82a.814.814 0 00-.44-.38 1.667 1.667 0 00-.66-.12h-.62v-.2h10.68l.12 3.62h-.2l-.06-.68c-.04-.68-.173-1.22-.4-1.62a1.839 1.839 0 00-.96-.86c-.426-.173-.993-.26-1.7-.26h-2.86v6.52h4.84v.2h-4.84v7.16h3.48c.707 0 1.28-.086 1.72-.26.44-.173.774-.46 1-.86.227-.413.36-.96.4-1.64l.06-.66h.2l-.14 3.62h-11.34zm17.312.2c-.76 0-1.42-.073-1.98-.22-.546-.16-1-.373-1.36-.64-.36-.28-.626-.586-.8-.92-.16-.333-.24-.68-.24-1.04 0-.386.087-.7.26-.94.174-.24.407-.42.7-.54.307-.12.634-.18.98-.18.014 1.094.127 1.954.34 2.58.227.627.547 1.067.96 1.32.414.254.9.38 1.46.38.827 0 1.5-.226 2.02-.68.52-.453.78-1.133.78-2.04 0-.613-.133-1.113-.4-1.5-.253-.4-.64-.753-1.16-1.06a14.85 14.85 0 00-1.9-.94 13.392 13.392 0 01-1.58-.8 5.877 5.877 0 01-1.16-.92 3.815 3.815 0 01-.74-1.16c-.16-.44-.24-.933-.24-1.48 0-.813.194-1.506.58-2.08.4-.586.96-1.033 1.68-1.34.72-.32 1.574-.48 2.56-.48.827 0 1.534.107 2.12.32.587.2 1.04.474 1.36.82.32.347.48.734.48 1.16 0 .44-.186.807-.56 1.1-.36.28-.886.42-1.58.42 0-.826-.073-1.5-.22-2.02-.133-.533-.366-.926-.7-1.18-.32-.266-.753-.4-1.3-.4-.413 0-.8.08-1.16.24a1.95 1.95 0 00-.88.8c-.213.36-.32.847-.32 1.46 0 .56.114 1.04.34 1.44.24.387.614.74 1.12 1.06.507.32 1.18.66 2.02 1.02.814.347 1.5.707 2.06 1.08.574.374 1.007.814 1.3 1.32.294.494.44 1.1.44 1.82 0 .84-.206 1.58-.62 2.22-.413.627-1.013 1.12-1.8 1.48-.786.347-1.74.52-2.86.52zm9.016-.2v-.2h.62c.267 0 .493-.04.68-.12a.818.818 0 00.42-.4c.107-.2.16-.48.16-.84v-12.52h-1.42c-.693 0-1.26.087-1.7.26-.427.174-.747.46-.96.86-.213.4-.347.94-.4 1.62l-.04.8h-.2l.12-3.74h11.94l.14 3.74h-.2l-.06-.8c-.04-.68-.167-1.22-.38-1.62-.213-.4-.54-.686-.98-.86-.427-.173-.987-.26-1.68-.26h-1.44v12.52c0 .36.047.64.14.84.107.187.253.32.44.4.2.08.427.12.68.12h.62v.2h-6.5zm10.274 0v-.2h.62c.253 0 .473-.033.66-.1a.912.912 0 00.44-.4c.106-.186.16-.453.16-.8v-11.3c0-.346-.053-.606-.16-.78a.814.814 0 00-.44-.38 1.666 1.666 0 00-.66-.12h-.62v-.2h6.04c1.227 0 2.233.14 3.02.42.787.28 1.367.7 1.74 1.26.386.56.58 1.24.58 2.04 0 .734-.147 1.347-.44 1.84-.28.494-.654.894-1.12 1.2a5.854 5.854 0 01-1.48.72l2.44 4a67.9 67.9 0 00.86 1.36c.24.347.447.607.62.78.173.174.326.294.46.36.146.067.293.1.44.1h.04v.2h-.5c-.614 0-1.14-.026-1.58-.08-.427-.053-.8-.14-1.12-.26a2.815 2.815 0 01-.86-.56 5.65 5.65 0 01-.72-.98l-2.76-4.8h-1.06v5.18c0 .347.046.614.14.8.106.187.253.32.44.4.2.067.427.1.68.1h.62v.2h-6.48zm5.82-6.88c.64 0 1.153-.12 1.54-.36s.667-.62.84-1.14c.187-.533.28-1.226.28-2.08 0-.853-.093-1.54-.28-2.06-.187-.533-.48-.926-.88-1.18-.387-.253-.9-.38-1.54-.38h-1.18v7.2h1.22zm14.619 7.08c-1.48 0-2.707-.306-3.68-.92-.974-.613-1.707-1.473-2.2-2.58-.48-1.106-.72-2.4-.72-3.88s.24-2.766.72-3.86c.493-1.093 1.226-1.94 2.2-2.54.986-.613 2.22-.92 3.7-.92 1.413 0 2.606.307 3.58.92.973.6 1.713 1.454 2.22 2.56.506 1.094.76 2.38.76 3.86s-.254 2.774-.76 3.88c-.507 1.094-1.254 1.947-2.24 2.56-.974.614-2.167.92-3.58.92zm0-.2c.64 0 1.186-.133 1.64-.4.466-.28.846-.706 1.14-1.28.293-.586.513-1.333.66-2.24.146-.906.22-1.986.22-3.24 0-1.253-.074-2.326-.22-3.22-.147-.906-.367-1.646-.66-2.22-.294-.586-.674-1.013-1.14-1.28-.454-.28-.994-.42-1.62-.42-.64 0-1.194.14-1.66.42-.467.267-.854.694-1.16 1.28-.294.574-.514 1.314-.66 2.22-.134.894-.2 1.967-.2 3.22 0 1.254.066 2.334.2 3.24.146.907.366 1.654.66 2.24.293.574.673 1 1.14 1.28.466.267 1.02.4 1.66.4z" fill="#fff"/></svg>