<svg width="70" height="113" fill="none" xmlns="http://www.w3.org/2000/svg"><path d="M68.5 47.013c.422 4.36-1.355 10.465-6.486 19.632.724-8.58-.104-14.819-1.96-19.338-2.028-4.938-5.271-7.793-8.978-9.392-3.687-1.59-7.808-1.926-11.595-1.887-1.874.019-3.678.13-5.314.232l-.056.003c-1.66.103-3.13.192-4.349.168l-.56-.01.053.558 5.18 54.263v.006c.655 8.914-4.548 16.163-13.484 19.374-4.517 1.619-8.98 1.972-12.536 1.257-3.566-.717-6.129-2.482-7.04-5.023h-.001c-.913-2.538-.058-5.528 2.239-8.349 2.29-2.811 5.96-5.378 10.477-7.004 4.743-1.698 9.423-2.002 13.058-1.145l.674.159-.061-.69L20.23 4.56v-.004c-.127-1.797 1.228-3.376 3.019-3.504h0c1.8-.13 3.38 1.226 3.509 3.017v.003l.755 9.94.01.133.075.11c4.923 7.26 11.012 11.75 16.973 15.047 2.977 1.648 5.925 2.999 8.674 4.246l.426.193c2.592 1.175 4.986 2.261 7.075 3.433 4.398 2.467 7.309 5.241 7.754 9.84z" stroke="#fff"/></svg>