<svg width="1002" height="916" fill="none" xmlns="http://www.w3.org/2000/svg"><path fill-rule="evenodd" clip-rule="evenodd" d="M0 915.752V901.12h49.556c14.416 0 27.97-2.12 40.67-6.353l.008-.003.009-.002c13.463-4.207 25.698-12.631 36.701-25.326 10.978-12.667 20.317-31.308 27.977-55.991l.002-.007L413.686 0h194.6l285.648 815.954.003.009c7.653 20.407 16.566 36.947 26.724 49.648 10.161 11.851 21.573 20.721 34.236 26.632 13.53 5.917 27.906 8.877 43.139 8.877h3.474v14.632H537.6V901.12h52.116c19.562 0 32.911-3.411 40.331-9.99 7.465-7.476 11.233-17.461 11.233-30.054 0-5.885-.841-11.774-2.525-17.668l-.019-.068-.009-.07a171.84 171.84 0 00-3.82-20.372l-.003-.012-.002-.011a231.186 231.186 0 00-6.375-22.949l-.003-.008-.002-.008-68.918-219.518H244.786l-62.515 196.473-.001.005a1451.401 1451.401 0 01-10.237 31.992c-2.552 9.36-4.678 18.291-6.379 26.794-1.696 8.482-2.542 16.528-2.542 24.14 0 13.465 3.779 23.868 11.233 31.334 7.423 6.583 20.354 9.99 39.051 9.99h91.796v14.632H0zm173.716-23.956c-7.68-7.68-11.52-18.347-11.52-32 0-7.68.853-15.787 2.56-24.32s3.84-17.493 6.4-26.88a1446.973 1446.973 0 0010.24-32l62.72-197.12h316.16l69.12 220.16a232.05 232.05 0 016.4 23.04 172.573 172.573 0 013.84 20.48c1.707 5.973 2.56 11.947 2.56 17.92 0 12.8-3.84 23.04-11.52 30.72-7.68 6.827-21.333 10.24-40.96 10.24h-51.2v12.8H1000.6v-12.8h-2.564c-15.36 0-29.867-2.987-43.52-8.96-12.8-5.973-24.32-14.933-34.56-26.88-10.24-12.8-19.2-29.44-26.88-49.92L607.636.916h-193.28l-258.56 812.8c-7.68 24.747-17.067 43.52-28.16 56.32-11.093 12.8-23.467 21.333-37.12 25.6-12.8 4.267-26.453 6.4-40.96 6.4H.916v12.8h303.36v-12.8h-90.88c-18.773 0-32-3.413-39.68-10.24zm292.247-606.442v-.002c-5.121-16.216-11.522-36.697-19.202-61.445l-.004-.013-.004-.014a5973.315 5973.315 0 00-21.757-76.789l-.002-.007c-7.34-26.099-14.29-50.248-20.851-72.448a7249.445 7249.445 0 01-13.226 46.852l-.004.011a1821.032 1821.032 0 01-16.648 52.507 4220.002 4220.002 0 00-17.912 55.015 1296.588 1296.588 0 01-16.646 53.779l-.002.006-90.494 282.954h305.972l-89.22-280.406zm90.473 281.322h-308.48l90.88-284.16a1295.67 1295.67 0 0016.64-53.76 4228.815 4228.815 0 0117.92-55.04 1819.205 1819.205 0 0016.64-52.48 7090.63 7090.63 0 0013.617-48.256l.463-1.664.49 1.656c6.684 22.589 13.774 47.21 21.27 73.864a5970.4 5970.4 0 0121.76 76.8c7.68 24.747 14.08 45.227 19.2 61.44l89.6 281.6z" fill="#fff"/></svg>